<?xml version="1.0" encoding="UTF-8" standalone="no"?><!DOCTYPE svg PUBLIC "-//W3C//DTD SVG 1.1//EN" "http://www.w3.org/Graphics/SVG/1.1/DTD/svg11.dtd"><svg width="280px" height="300px" version="1.1" xmlns="http://www.w3.org/2000/svg" xmlns:xlink="http://www.w3.org/1999/xlink" xml:space="preserve" xmlns:serif="http://www.serif.com/" style="fill-rule:evenodd;clip-rule:evenodd;stroke-linejoin:round;stroke-miterlimit:2;"><ellipse cx="9.5" cy="10.5" rx="9.5" ry="10.5" style="fill:#e6e6e6;"/><ellipse cx="9.5" cy="41.5" rx="9.5" ry="10.5" style="fill:#e6e6e6;"/><ellipse cx="9.5" cy="72.5" rx="9.5" ry="10.5" style="fill:#e6e6e6;"/><ellipse cx="9.5" cy="103.5" rx="9.5" ry="10.5" style="fill:#e6e6e6;"/><ellipse cx="9.5" cy="134.5" rx="9.5" ry="10.5" style="fill:#e6e6e6;"/><ellipse cx="9.5" cy="165.5" rx="9.5" ry="10.5" style="fill:#e6e6e6;"/><ellipse cx="9.5" cy="196.5" rx="9.5" ry="10.5" style="fill:#e6e6e6;"/><ellipse cx="9.5" cy="227.5" rx="9.5" ry="10.5" style="fill:#e6e6e6;"/><ellipse cx="9.5" cy="258.5" rx="9.5" ry="10.5" style="fill:#e6e6e6;"/><ellipse cx="9.5" cy="289.5" rx="9.5" ry="10.5" style="fill:#e6e6e6;"/><ellipse cx="38.5" cy="10.5" rx="9.5" ry="10.5" style="fill:#e6e6e6;"/><ellipse cx="38.5" cy="41.5" rx="9.5" ry="10.5" style="fill:#e6e6e6;"/><ellipse cx="38.5" cy="72.5" rx="9.5" ry="10.5" style="fill:#e6e6e6;"/><ellipse cx="38.5" cy="103.5" rx="9.5" ry="10.5" style="fill:#e6e6e6;"/><ellipse cx="38.5" cy="134.5" rx="9.5" ry="10.5" style="fill:#e6e6e6;"/><ellipse cx="38.5" cy="165.5" rx="9.5" ry="10.5" style="fill:#e6e6e6;"/><ellipse cx="38.5" cy="196.5" rx="9.5" ry="10.5" style="fill:#e6e6e6;"/><ellipse cx="38.5" cy="227.5" rx="9.5" ry="10.5" style="fill:#e6e6e6;"/><ellipse cx="38.5" cy="258.5" rx="9.5" ry="10.5" style="fill:#e6e6e6;"/><ellipse cx="38.5" cy="289.5" rx="9.5" ry="10.5" style="fill:#e6e6e6;"/><ellipse cx="67.5" cy="10.5" rx="9.5" ry="10.5" style="fill:#e6e6e6;"/><ellipse cx="67.5" cy="41.5" rx="9.5" ry="10.5" style="fill:#e6e6e6;"/><ellipse cx="67.5" cy="72.5" rx="9.5" ry="10.5" style="fill:#e6e6e6;"/><ellipse cx="67.5" cy="103.5" rx="9.5" ry="10.5" style="fill:#e6e6e6;"/><ellipse cx="67.5" cy="134.5" rx="9.5" ry="10.5" style="fill:#e6e6e6;"/><ellipse cx="67.5" cy="165.5" rx="9.5" ry="10.5" style="fill:#e6e6e6;"/><ellipse cx="67.5" cy="196.5" rx="9.5" ry="10.5" style="fill:#e6e6e6;"/><ellipse cx="67.5" cy="227.5" rx="9.5" ry="10.5" style="fill:#e6e6e6;"/><ellipse cx="67.5" cy="258.5" rx="9.5" ry="10.5" style="fill:#e6e6e6;"/><ellipse cx="67.5" cy="289.5" rx="9.5" ry="10.5" style="fill:#e6e6e6;"/><ellipse cx="96.5" cy="10.5" rx="9.5" ry="10.5" style="fill:#e6e6e6;"/><ellipse cx="96.5" cy="41.5" rx="9.5" ry="10.5" style="fill:#e6e6e6;"/><ellipse cx="96.5" cy="72.5" rx="9.5" ry="10.5" style="fill:#e6e6e6;"/><ellipse cx="96.5" cy="103.5" rx="9.5" ry="10.5" style="fill:#e6e6e6;"/><ellipse cx="96.5" cy="134.5" rx="9.5" ry="10.5" style="fill:#e6e6e6;"/><ellipse cx="96.5" cy="165.5" rx="9.5" ry="10.5" style="fill:#e6e6e6;"/><ellipse cx="96.5" cy="196.5" rx="9.5" ry="10.5" style="fill:#e6e6e6;"/><ellipse cx="96.5" cy="227.5" rx="9.5" ry="10.5" style="fill:#e6e6e6;"/><ellipse cx="96.5" cy="258.5" rx="9.5" ry="10.5" style="fill:#e6e6e6;"/><ellipse cx="96.5" cy="289.5" rx="9.5" ry="10.5" style="fill:#e6e6e6;"/><ellipse cx="125.5" cy="10.5" rx="9.5" ry="10.5" style="fill:#e6e6e6;"/><ellipse cx="125.5" cy="41.5" rx="9.5" ry="10.5" style="fill:#e6e6e6;"/><ellipse cx="125.5" cy="72.5" rx="9.5" ry="10.5" style="fill:#e6e6e6;"/><ellipse cx="125.5" cy="103.5" rx="9.5" ry="10.5" style="fill:#e6e6e6;"/><ellipse cx="125.5" cy="134.5" rx="9.5" ry="10.5" style="fill:#e6e6e6;"/><ellipse cx="125.5" cy="165.5" rx="9.5" ry="10.5" style="fill:#e6e6e6;"/><ellipse cx="125.5" cy="196.5" rx="9.5" ry="10.5" style="fill:#e6e6e6;"/><ellipse cx="125.5" cy="227.5" rx="9.5" ry="10.5" style="fill:#e6e6e6;"/><ellipse cx="125.5" cy="258.5" rx="9.5" ry="10.5" style="fill:#e6e6e6;"/><ellipse cx="125.5" cy="289.5" rx="9.5" ry="10.5" style="fill:#e6e6e6;"/><ellipse cx="154.5" cy="10.5" rx="9.5" ry="10.5" style="fill:#e6e6e6;"/><ellipse cx="154.5" cy="41.5" rx="9.5" ry="10.5" style="fill:#e6e6e6;"/><ellipse cx="154.5" cy="72.5" rx="9.5" ry="10.5" style="fill:#e6e6e6;"/><ellipse cx="154.5" cy="103.5" rx="9.5" ry="10.5" style="fill:#e6e6e6;"/><ellipse cx="154.5" cy="134.5" rx="9.5" ry="10.5" style="fill:#e6e6e6;"/><ellipse cx="154.5" cy="165.5" rx="9.5" ry="10.5" style="fill:#e6e6e6;"/><ellipse cx="154.5" cy="196.5" rx="9.5" ry="10.5" style="fill:#e6e6e6;"/><ellipse cx="154.5" cy="227.5" rx="9.5" ry="10.5" style="fill:#e6e6e6;"/><ellipse cx="154.5" cy="258.5" rx="9.5" ry="10.5" style="fill:#e6e6e6;"/><ellipse cx="154.5" cy="289.5" rx="9.5" ry="10.5" style="fill:#e6e6e6;"/><ellipse cx="183.5" cy="10.5" rx="9.5" ry="10.5" style="fill:#e6e6e6;"/><ellipse cx="183.5" cy="41.5" rx="9.5" ry="10.5" style="fill:#e6e6e6;"/><ellipse cx="183.5" cy="72.5" rx="9.5" ry="10.5" style="fill:#e6e6e6;"/><ellipse cx="183.5" cy="103.5" rx="9.5" ry="10.5" style="fill:#e6e6e6;"/><ellipse cx="183.5" cy="134.5" rx="9.5" ry="10.5" style="fill:#e6e6e6;"/><ellipse cx="183.5" cy="165.5" rx="9.5" ry="10.5" style="fill:#e6e6e6;"/><ellipse cx="183.5" cy="196.5" rx="9.5" ry="10.5" style="fill:#e6e6e6;"/><ellipse cx="183.5" cy="227.5" rx="9.5" ry="10.5" style="fill:#e6e6e6;"/><ellipse cx="183.5" cy="258.5" rx="9.5" ry="10.5" style="fill:#e6e6e6;"/><ellipse cx="183.5" cy="289.5" rx="9.5" ry="10.5" style="fill:#e6e6e6;"/><ellipse cx="212.5" cy="10.5" rx="9.5" ry="10.5" style="fill:#e6e6e6;"/><ellipse cx="212.5" cy="41.5" rx="9.5" ry="10.5" style="fill:#e6e6e6;"/><ellipse cx="212.5" cy="72.5" rx="9.5" ry="10.5" style="fill:#e6e6e6;"/><ellipse cx="212.5" cy="103.5" rx="9.5" ry="10.5" style="fill:#e6e6e6;"/><ellipse cx="212.5" cy="134.5" rx="9.5" ry="10.5" style="fill:#e6e6e6;"/><ellipse cx="212.5" cy="165.5" rx="9.5" ry="10.5" style="fill:#e6e6e6;"/><ellipse cx="212.5" cy="196.5" rx="9.5" ry="10.5" style="fill:#e6e6e6;"/><ellipse cx="212.5" cy="227.5" rx="9.5" ry="10.5" style="fill:#e6e6e6;"/><ellipse cx="212.5" cy="258.5" rx="9.5" ry="10.5" style="fill:#e6e6e6;"/><ellipse cx="212.5" cy="289.5" rx="9.5" ry="10.5" style="fill:#e6e6e6;"/><ellipse cx="241.5" cy="10.5" rx="9.5" ry="10.5" style="fill:#e6e6e6;"/><ellipse cx="241.5" cy="41.5" rx="9.5" ry="10.5" style="fill:#e6e6e6;"/><ellipse cx="241.5" cy="72.5" rx="9.5" ry="10.5" style="fill:#e6e6e6;"/><ellipse cx="241.5" cy="103.5" rx="9.5" ry="10.5" style="fill:#e6e6e6;"/><ellipse cx="241.5" cy="134.5" rx="9.5" ry="10.5" style="fill:#e6e6e6;"/><ellipse cx="241.5" cy="165.5" rx="9.5" ry="10.5" style="fill:#e6e6e6;"/><ellipse cx="241.5" cy="196.5" rx="9.5" ry="10.5" style="fill:#e6e6e6;"/><ellipse cx="241.5" cy="227.5" rx="9.5" ry="10.5" style="fill:#e6e6e6;"/><ellipse cx="241.5" cy="258.5" rx="9.5" ry="10.5" style="fill:#e6e6e6;"/><ellipse cx="241.5" cy="289.5" rx="9.5" ry="10.5" style="fill:#e6e6e6;"/><ellipse cx="270.5" cy="10.5" rx="9.5" ry="10.5" style="fill:#e6e6e6;"/><ellipse cx="270.5" cy="41.5" rx="9.5" ry="10.5" style="fill:#e6e6e6;"/><ellipse cx="270.5" cy="72.5" rx="9.5" ry="10.5" style="fill:#e6e6e6;"/><ellipse cx="270.5" cy="103.5" rx="9.5" ry="10.5" style="fill:#e6e6e6;"/><ellipse cx="270.5" cy="134.5" rx="9.5" ry="10.5" style="fill:#e6e6e6;"/><ellipse cx="270.5" cy="165.5" rx="9.5" ry="10.5" style="fill:#e6e6e6;"/><ellipse cx="270.5" cy="196.5" rx="9.5" ry="10.5" style="fill:#e6e6e6;"/><ellipse cx="270.5" cy="227.5" rx="9.5" ry="10.5" style="fill:#e6e6e6;"/><ellipse cx="270.5" cy="258.5" rx="9.5" ry="10.5" style="fill:#e6e6e6;"/><ellipse cx="270.5" cy="289.5" rx="9.5" ry="10.5" style="fill:#e6e6e6;"/></svg>