<?xml version="1.0" encoding="UTF-8" standalone="no"?><!DOCTYPE svg PUBLIC "-//W3C//DTD SVG 1.1//EN" "http://www.w3.org/Graphics/SVG/1.1/DTD/svg11.dtd"><svg width="500px" height="500px" version="1.1" xmlns="http://www.w3.org/2000/svg" xmlns:xlink="http://www.w3.org/1999/xlink" xml:space="preserve" xmlns:serif="http://www.serif.com/" style="fill-rule:evenodd;clip-rule:evenodd;stroke-linecap:round;stroke-linejoin:round;stroke-miterlimit:1.5;"><circle cx="250" cy="250" r="244.008" style="fill:none;stroke:#000;stroke-width:10px;"/><circle cx="250" cy="250" r="244.008" style="fill:none;"/><clipPath id="_clip1"><circle cx="250" cy="250" r="244.008"/></clipPath><g clip-path="url(#_clip1)"><path d="M523.031,444.075c0,46.666 -122.341,84.553 -273.031,84.553c-150.69,0 -273.031,-37.887 -273.031,-84.553c0,-46.667 122.341,-84.554 273.031,-84.554c150.69,0 273.031,37.887 273.031,84.554Z" style="fill:none;stroke:#000;stroke-width:10px;"/><path d="M512.534,56.924c0,51.627 -117.637,93.542 -262.534,93.542c-144.897,0 -262.534,-41.915 -262.534,-93.542c0,-51.627 117.637,-93.542 262.534,-93.542c144.897,0 262.534,41.915 262.534,93.542Z" style="fill:none;stroke:#000;stroke-width:10px;"/><path d="M494.008,255.326l0,-10.652l-488.016,0l0,10.652l488.016,0Z"/></g><ellipse cx="250" cy="250" rx="160.786" ry="244.008" style="fill:none;stroke:#000;stroke-width:10px;"/><rect x="244.674" y="5.992" width="10.652" height="488.016"/></svg>