<?xml version="1.0" encoding="UTF-8" standalone="no"?><!DOCTYPE svg PUBLIC "-//W3C//DTD SVG 1.1//EN" "http://www.w3.org/Graphics/SVG/1.1/DTD/svg11.dtd"><svg width="100%" height="100%" viewBox="0 0 864 498" version="1.1" xmlns="http://www.w3.org/2000/svg" xmlns:xlink="http://www.w3.org/1999/xlink" xml:space="preserve" xmlns:serif="http://www.serif.com/" style="fill-rule:evenodd;clip-rule:evenodd;"><path d="M1.591,184.902c4.666,-40.396 32.719,-70.804 64.139,-96.826c32.615,-27.01 71.085,-62.724 110.918,-48.149c38.492,14.085 31.477,68.733 47.707,106.193c14.624,33.753 48.924,61.119 40.263,96.848c-10.503,43.329 -43.731,80.076 -86.431,93.615c-46.907,14.873 -101.329,9.736 -138.589,-22.267c-35.982,-30.905 -43.433,-82.441 -38.007,-129.414Z" style="fill:#f2f2f2;"/><path d="M281.743,10.914c10.579,61.713 13.59,124.844 8.946,187.531c-1.221,16.321 -2.965,32.574 -5.232,48.759c-1.034,7.358 -2.212,14.681 -3.422,22.002c-0.693,4.195 -2.148,9.417 0.13,13.366c4.438,7.691 19.645,5.684 26.347,5.935c13.941,0.522 27.902,0.61 41.848,0.892l41.956,0.847l20.201,0.409c6.883,0.139 14.421,1.374 21.25,0.355c8.987,-1.342 6.798,-12.239 6.661,-20.334c-0.268,-16.005 -0.637,-32.007 -1.105,-48.006c-1.854,-63.403 -5.267,-126.71 -10.24,-189.921c-0.634,-8.064 -0.238,-17.713 -2.114,-25.51c-0.759,-3.152 -1.513,-4.064 -4.47,-4.63c-6.774,-1.297 -14.846,0.069 -21.699,0.124l-22.915,0.185l-93.19,0.751c-0.607,0.024 -1.181,0.32 -1.603,0.825c-0.421,0.505 -0.657,1.18 -0.657,1.883c0,0.702 0.236,1.377 0.657,1.882c0.422,0.506 0.996,0.802 1.603,0.826l76.385,-0.616l33.609,-0.27l18.333,-0.148c3.768,-0.03 7.289,-1.351 9.652,3.448c1.495,3.037 0.883,10.632 1.167,14.165c4.564,56.671 7.875,113.453 9.932,170.345c0.514,14.217 0.95,28.437 1.307,42.66c0.148,5.927 0.284,11.854 0.405,17.781c0.073,3.556 0.141,7.112 0.204,10.669c0.065,3.668 1.376,10.857 0.226,14.227c-2.453,7.185 -13.389,4.094 -18.736,3.986l-18.647,-0.376l-37.295,-0.754l-37.294,-0.754c-6.167,-0.124 -12.339,-0.179 -18.502,-0.483c-2.044,-0.101 -4.091,-0.214 -6.133,-0.383c-6.079,-0.501 -12.623,1.163 -13.346,-8.564c-0.446,-6.003 2.39,-14.28 3.275,-20.285c1.001,-6.781 1.909,-13.579 2.726,-20.393c1.528,-12.732 2.745,-25.506 3.652,-38.323c4.283,-62.051 1.133,-124.491 -9.361,-185.543c-0.584,-3.416 -5.094,-1.97 -4.511,1.44Z" style="fill:#f1f1f1;fill-rule:nonzero;"/><path d="M303.253,24.856l30.943,0c0.607,-0.025 1.181,-0.321 1.603,-0.826c0.421,-0.505 0.657,-1.18 0.657,-1.883c0,-0.702 -0.236,-1.377 -0.657,-1.882c-0.422,-0.506 -0.996,-0.801 -1.603,-0.826l-30.943,0c-0.606,0.025 -1.181,0.32 -1.602,0.826c-0.422,0.505 -0.657,1.18 -0.657,1.882c0,0.703 0.235,1.378 0.657,1.883c0.421,0.505 0.996,0.801 1.602,0.826Z" style="fill:#f1f1f1;fill-rule:nonzero;"/><path d="M303.251,37.075l29.167,-1.277c3.001,-0.131 3.016,-5.548 0,-5.416l-29.167,1.276c-3.001,0.132 -3.016,5.549 0,5.417Z" style="fill:#f1f1f1;fill-rule:nonzero;"/><path d="M303.253,47.374l28.291,0c0.606,-0.024 1.181,-0.32 1.602,-0.825c0.422,-0.506 0.657,-1.181 0.657,-1.883c0,-0.703 -0.235,-1.378 -0.657,-1.883c-0.421,-0.505 -0.996,-0.801 -1.602,-0.825l-28.291,0c-0.606,0.024 -1.181,0.32 -1.602,0.825c-0.422,0.505 -0.657,1.18 -0.657,1.883c0,0.702 0.235,1.377 0.657,1.883c0.421,0.505 0.996,0.801 1.602,0.825Z" style="fill:#f1f1f1;fill-rule:nonzero;"/><path d="M397.005,22.313c-6.35,-3.836 -12.114,2.472 -13.008,9.678c-0.437,3.524 -0.532,8.341 1.408,11.334c1.98,3.057 5.789,4.339 8.952,4.565c6.039,0.432 12.464,-3.468 13.95,-10.628c0.7,-3.179 0.358,-6.545 -0.959,-9.449c-1.317,-2.905 -3.517,-5.141 -6.174,-6.279c-2.851,-1.143 -4.076,4.087 -1.244,5.223c1.313,0.632 2.413,1.741 3.135,3.159c0.722,1.418 1.026,3.069 0.868,4.705c-0.186,1.881 -0.897,3.641 -2.026,5.011c-1.128,1.371 -2.612,2.277 -4.227,2.582c-3.861,1.028 -8.386,-0.076 -9.132,-5.119c-0.559,-3.772 1.211,-13.057 6.096,-10.105c2.666,1.61 5.034,-3.063 2.361,-4.677Z" style="fill:#f1f1f1;fill-rule:nonzero;"/><path d="M309.441,77.077c34.036,0.414 68.037,-0.803 102.002,-3.65l-2.255,-3.428c-5.56,16.31 -5.407,33.501 -4.67,50.756c0.184,4.322 1.356,10.152 0.598,14.434c-0.953,5.384 -5.128,4.097 -9.28,4.253c-9.146,0.342 -18.293,0.588 -27.443,0.738c-8.641,0.141 -17.283,0.197 -25.925,0.167c-4.067,-0.015 -8.134,-0.048 -12.201,-0.1c-4.775,-0.062 -10.203,1.543 -11.436,-4.861c-0.79,-4.102 0.005,-9.497 0.007,-13.716l0.009,-15.431l0.018,-30.862c-0.021,-0.702 -0.276,-1.367 -0.713,-1.855c-0.436,-0.488 -1.019,-0.761 -1.626,-0.761c-0.607,0 -1.19,0.273 -1.626,0.761c-0.436,0.488 -0.692,1.153 -0.713,1.855l-0.022,37.72l-0.01,17.146c-0.002,3.405 -0.613,7.52 0.485,10.753c2.527,7.437 13.444,4.647 18.677,4.703c10.675,0.113 21.35,0.095 32.026,-0.057c10.675,-0.149 21.347,-0.43 32.017,-0.841c4.597,-0.177 10.958,1.033 12.352,-5.53c0.978,-4.602 -0.162,-10.602 -0.37,-15.298c-0.239,-5.359 -0.494,-10.719 -0.556,-16.085c-0.145,-12.532 0.915,-24.723 4.913,-36.45c0.093,-0.402 0.106,-0.823 0.036,-1.232c-0.069,-0.408 -0.218,-0.793 -0.436,-1.124c-0.218,-0.331 -0.499,-0.6 -0.82,-0.786c-0.322,-0.186 -0.676,-0.283 -1.036,-0.286c-33.948,2.847 -67.949,4.064 -102.002,3.65c-0.606,0.024 -1.18,0.32 -1.602,0.826c-0.422,0.505 -0.657,1.18 -0.657,1.882c0,0.703 0.235,1.378 0.657,1.883c0.422,0.505 0.996,0.801 1.602,0.826l0,0Z" style="fill:#f1f1f1;fill-rule:nonzero;"/><path d="M319.142,80.02c14.569,5.969 28.773,13.071 42.516,21.256c12.329,7.377 28.47,15.436 36.955,28.621c1.778,2.763 5.841,0.066 4.04,-2.734c-8.665,-13.464 -23.582,-21.386 -36.112,-29.039c-14.883,-9.043 -30.308,-16.839 -46.155,-23.327c-2.842,-1.171 -4.065,4.06 -1.244,5.223Z" style="fill:#f1f1f1;fill-rule:nonzero;"/><path d="M410.648,70.374c-15.459,7.654 -28.557,22.401 -42.373,33.327c-14.954,11.828 -30.353,22.835 -46.198,33.021c-2.629,1.7 -0.272,6.38 2.362,4.677c15.81,-10.222 31.21,-21.229 46.198,-33.021c13.813,-10.924 26.917,-25.675 42.373,-33.327c2.759,-1.366 0.379,-6.033 -2.362,-4.677l0,0Z" style="fill:#f1f1f1;fill-rule:nonzero;"/><path d="M318.285,181.321c31.536,0.556 63.07,0.41 94.604,-0.436c3.006,-0.081 3.017,-5.498 0,-5.417c-31.531,0.847 -63.066,0.993 -94.604,0.437c-0.607,0.024 -1.181,0.32 -1.603,0.826c-0.421,0.505 -0.657,1.18 -0.657,1.882c0,0.703 0.236,1.378 0.657,1.883c0.422,0.505 0.996,0.801 1.603,0.825Z" style="fill:#f1f1f1;fill-rule:nonzero;"/><path d="M320.937,205.878c32.42,0.599 64.839,0.438 97.256,-0.483c3.005,-0.086 3.017,-5.502 0,-5.417c-32.414,0.922 -64.833,1.083 -97.256,0.484c-3.011,-0.056 -3.012,5.361 0,5.416Z" style="fill:#f1f1f1;fill-rule:nonzero;"/><path d="M317.389,232.393l91.952,-4.944c2.998,-0.161 3.015,-5.578 0,-5.416l-91.952,4.944c-2.998,0.161 -3.015,5.578 0,5.416Z" style="fill:#f1f1f1;fill-rule:nonzero;"/><path d="M651.991,11.91l0,265.071c-0.001,3.158 -1.255,6.186 -3.485,8.418c-2.23,2.233 -5.254,3.487 -8.407,3.487l-107.447,0c-1.562,0.002 -3.109,-0.304 -4.553,-0.901c-1.444,-0.597 -2.756,-1.474 -3.86,-2.58c-1.105,-1.106 -1.981,-2.419 -2.578,-3.865c-0.597,-1.445 -0.903,-2.995 -0.901,-4.559l0,-265.071c0,-1.564 0.307,-3.113 0.905,-4.558c0.597,-1.445 1.473,-2.758 2.578,-3.864c1.104,-1.106 2.415,-1.983 3.858,-2.582c1.443,-0.598 2.989,-0.906 4.551,-0.906l16.081,0l0,2.067c0,2.601 1.032,5.095 2.868,6.934c1.837,1.839 4.327,2.872 6.924,2.872l54.646,0c2.597,0 5.087,-1.033 6.923,-2.872c1.837,-1.839 2.868,-4.333 2.868,-6.934l0,-2.067l17.137,0c1.562,-0.001 3.109,0.307 4.552,0.906c1.443,0.598 2.754,1.475 3.858,2.581c1.105,1.106 1.981,2.42 2.578,3.865c0.598,1.445 0.905,2.994 0.904,4.558Z" style="fill:#f2f2f2;fill-rule:nonzero;"/><path d="M638.362,144.738l-105.006,0l0,-94.125l105.006,0l0,94.125Zm-103.956,-1.052l102.906,0l0,-92.022l-102.906,0l0,92.022Z" style="fill:#3f3d56;fill-rule:nonzero;"/><path d="M534.23,50.746l-0.7,0.784l103.957,93.074l0.7,-0.784l-103.957,-93.074Z" style="fill:#3f3d56;fill-rule:nonzero;"/><path d="M637.487,50.747l-103.957,93.072l0.699,0.784l103.958,-93.072l-0.7,-0.784Z" style="fill:#3f3d56;fill-rule:nonzero;"/><rect x="533.881" y="172.082" width="103.956" height="1.05" style="fill:#3f3d56;fill-rule:nonzero;"/><rect x="533.881" y="181.546" width="103.956" height="1.05" style="fill:#3f3d56;fill-rule:nonzero;"/><rect x="533.881" y="191.012" width="103.956" height="1.05" style="fill:#3f3d56;fill-rule:nonzero;"/><rect x="533.881" y="200.477" width="51.978" height="1.05" style="fill:#3f3d56;fill-rule:nonzero;"/><rect x="533.881" y="209.943" width="51.978" height="1.05" style="fill:#3f3d56;fill-rule:nonzero;"/><path d="M553.921,23.181c0,-0.625 -0.508,-1.132 -1.133,-1.132l-18.119,0c-0.625,0 -1.132,0.507 -1.132,1.132l0,0c0,0.625 0.507,1.133 1.132,1.133l18.119,0c0.625,0 1.133,-0.508 1.133,-1.133l0,0Z" style="fill:#3f3d56;"/><path d="M553.632,27.711c0,0.625 -0.508,1.133 -1.133,1.133l-18.119,0c-0.625,0 -1.132,-0.508 -1.132,-1.133l0,0c0,-0.625 0.507,-1.132 1.132,-1.132l18.119,0c0.625,0 1.133,0.507 1.133,1.132l0,0Z" style="fill:#3f3d56;"/><path d="M553.632,32.241c0,0.625 -0.508,1.132 -1.133,1.132l-18.119,0c-0.625,0 -1.132,-0.507 -1.132,-1.132l0,0c0,-0.625 0.507,-1.133 1.132,-1.133l18.119,0c0.625,0 1.133,0.508 1.133,1.133l0,0Z" style="fill:#3f3d56;"/><path d="M643.132,28.277c0,5.165 -4.438,9.376 -9.942,9.376c-5.504,0 -9.942,-4.211 -9.942,-9.376c0,-5.164 4.438,-9.375 9.942,-9.375c5.504,0 9.942,4.211 9.942,9.375Z" style="fill:none;fill-rule:nonzero;stroke:#3f3d56;stroke-width:0.5px;"/><path d="M863.223,11.91l0,265.071c-0.002,3.158 -1.255,6.186 -3.485,8.418c-2.23,2.233 -5.254,3.487 -8.407,3.487l-107.448,0c-1.562,0.003 -3.109,-0.304 -4.553,-0.901c-1.443,-0.597 -2.755,-1.474 -3.86,-2.58c-1.105,-1.106 -1.981,-2.419 -2.578,-3.865c-0.597,-1.445 -0.903,-2.995 -0.901,-4.559l0,-265.071c0,-1.564 0.308,-3.113 0.905,-4.558c0.598,-1.445 1.474,-2.758 2.578,-3.864c1.104,-1.106 2.415,-1.983 3.858,-2.582c1.443,-0.598 2.989,-0.906 4.551,-0.906l16.082,0l0,2.067c0,2.601 1.032,5.095 2.868,6.934c1.836,1.839 4.327,2.872 6.924,2.872l54.645,0c2.597,0 5.088,-1.033 6.924,-2.872c1.836,-1.839 2.868,-4.333 2.868,-6.934l0,-2.067l17.137,0c1.562,-0.001 3.108,0.307 4.551,0.906c1.443,0.598 2.755,1.475 3.859,2.581c1.104,1.106 1.98,2.42 2.578,3.865c0.597,1.445 0.904,2.994 0.904,4.558Z" style="fill:#3f3d56;fill-rule:nonzero;"/><rect x="745.111" y="172.082" width="103.956" height="1.05" style="fill:#fff;fill-rule:nonzero;"/><rect x="745.111" y="181.546" width="103.956" height="1.05" style="fill:#fff;fill-rule:nonzero;"/><rect x="745.111" y="191.012" width="103.956" height="1.05" style="fill:#fff;fill-rule:nonzero;"/><rect x="745.111" y="200.477" width="51.978" height="1.05" style="fill:#fff;fill-rule:nonzero;"/><rect x="745.111" y="209.943" width="51.978" height="1.05" style="fill:#fff;fill-rule:nonzero;"/><rect x="744.587" y="50.613" width="105.006" height="94.125" style="fill:#6c98c6;fill-rule:nonzero;"/><path d="M772.972,105.279c0,17.433 10.361,23.519 23.143,23.519c12.782,0 23.143,-6.086 23.143,-23.519c0,-17.433 -23.143,-39.61 -23.143,-39.61c0,0 -23.143,22.177 -23.143,39.61Z" style="fill:#38d39f;fill-rule:nonzero;"/><path d="M796.958,126.132l-0.237,-14.59l-9.864,-18.049l9.827,15.761l-0.107,-6.56l-6.798,-13.059l6.77,11.323l-0.192,-11.799l-7.28,-10.396l7.25,8.541l-0.12,-21.635l0.753,28.64l-0.062,-1.181l7.401,-11.331l-7.282,13.599l0.689,13.177l0.021,-0.35l8.533,-11.924l-8.507,13.16l0.086,1.648l0.015,0.024l-0.007,0.136l1.75,33.431l-2.338,0l-0.28,-17.268l-8.486,-13.128l8.465,11.83Z" style="fill:#3f3d56;fill-rule:nonzero;"/><path d="M764.734,23.181c0,-0.625 -0.508,-1.132 -1.133,-1.132l-18.119,0c-0.625,0 -1.132,0.507 -1.132,1.132l0,0c0,0.625 0.507,1.133 1.132,1.133l18.119,0c0.625,0 1.133,-0.508 1.133,-1.133l0,0Z" style="fill:#fff;"/><path d="M756.73,27.711c0,0.625 -0.507,1.133 -1.132,1.133l-10.116,0c-0.625,0 -1.132,-0.508 -1.132,-1.133l0,0c0,-0.625 0.507,-1.132 1.132,-1.132l10.116,0c0.625,0 1.132,0.507 1.132,1.132l0,0Z" style="fill:#fff;"/><path d="M760.441,32.241c0,0.625 -0.507,1.132 -1.132,1.132l-14.116,0c-0.625,0 -1.132,-0.507 -1.132,-1.132l0,0c0,-0.625 0.507,-1.133 1.132,-1.133l14.116,0c0.625,0 1.132,0.508 1.132,1.133l0,0Z" style="fill:#fff;"/><circle cx="844.569" cy="28.277" r="9.626" style="fill:#fff;"/><path d="M513.707,136.1c0.391,-0.391 0.391,-1.024 0,-1.414l-6.364,-6.364c-0.39,-0.391 -1.024,-0.391 -1.414,0c-0.391,0.39 -0.391,1.023 0,1.414l5.657,5.657l-5.657,5.657c-0.391,0.39 -0.391,1.023 0,1.414c0.39,0.39 1.024,0.39 1.414,0l6.364,-6.364Zm-64.707,0.293l64,0l0,-2l-64,0l0,2Z" style="fill-rule:nonzero;"/><path d="M720.707,136.1c0.391,-0.391 0.391,-1.024 0,-1.414l-6.364,-6.364c-0.39,-0.391 -1.024,-0.391 -1.414,0c-0.391,0.39 -0.391,1.023 0,1.414l5.657,5.657l-5.657,5.657c-0.391,0.39 -0.391,1.023 0,1.414c0.39,0.39 1.024,0.39 1.414,0l6.364,-6.364Zm-62.707,0.293l62,0l0,-2l-62,0l0,2Z" style="fill-rule:nonzero;"/><path d="M90.178,462.772c-1.657,-3.765 -3.228,-8.095 -1.571,-11.859c1.082,-2.218 2.94,-3.962 5.223,-4.902c2.26,-0.92 4.641,-1.507 7.07,-1.742c7.623,-0.998 15.336,-1.103 22.983,-0.313c0.558,4.408 -0.62,8.878 -1.634,13.137c-0.919,3.922 -1.445,4.502 -5.498,4.706c-2.624,0.141 -25.952,2.361 -26.573,0.973Z" style="fill:#fbbebe;fill-rule:nonzero;"/><path d="M160.126,437.376c62.035,0 112.325,-14.046 112.325,-31.373c0,-17.326 -50.29,-31.372 -112.325,-31.372c-62.035,0 -112.325,14.046 -112.325,31.372c0,17.327 50.29,31.373 112.325,31.373Z" style="fill:#464353;fill-rule:nonzero;"/><path d="M160.126,437.376c62.035,0 112.325,-14.046 112.325,-31.373c0,-17.326 -50.29,-31.372 -112.325,-31.372c-62.035,0 -112.325,14.046 -112.325,31.372c0,17.327 50.29,31.373 112.325,31.373Z" style="fill-opacity:0.1;fill-rule:nonzero;"/><path d="M180.266,240.387c-3.85,7.428 -10.245,13.229 -18.019,16.345c-4.59,1.67 -9.42,2.586 -14.304,2.713c-5.333,0.244 -10.777,-0.102 -15.788,-1.921c-6.724,-2.432 -12.309,-7.404 -16.495,-13.2c-4.187,-5.796 -7.07,-12.416 -9.575,-19.09c-1.32,-3.475 -2.577,-7.177 -1.956,-10.848c4.045,-0.917 8.475,-2.266 10.564,-5.851c1.784,-3.074 1.289,-6.76 0.26,-10.274c-0.291,-0.996 -0.629,-1.984 -0.966,-2.934c-0.786,-2.274 -3.496,-6.596 -1.571,-8.541c1.201,-1.231 6.236,-1.859 7.972,-2.659c5.349,-2.462 10.282,-6.023 16.158,-7.192c5.082,-1.011 10.329,-0.062 15.403,0.989c0.673,0.097 1.32,0.329 1.901,0.682c0.663,0.558 1.153,1.292 1.414,2.118c1.445,3.513 2.294,7.396 3.456,11.058c1.21,3.836 2.765,7.436 5.679,10.157c2.27,2.126 5.161,3.459 7.989,4.753l6.959,3.185c1.238,0.462 2.361,1.188 3.291,2.125c0.91,1.249 1.454,2.727 1.571,4.267c1.247,8.253 -0.132,16.689 -3.943,24.118Z" style="fill:#fbbebe;fill-rule:nonzero;"/><path d="M158.688,191.782c-5.542,5.762 -12.842,9.524 -20.756,10.696c-7.914,1.173 -15.994,-0.311 -22.972,-4.217c-0.291,-0.996 -0.629,-1.985 -0.966,-2.934c-0.786,-2.274 -3.496,-6.596 -1.571,-8.541c1.201,-1.231 6.236,-1.859 7.972,-2.659c5.35,-2.462 10.282,-6.023 16.158,-7.192c5.082,-1.011 10.329,-0.062 15.403,0.988c0.673,0.098 1.32,0.33 1.901,0.683c0.663,0.558 1.153,1.292 1.414,2.118c1.406,3.513 2.254,7.396 3.417,11.058Z" style="fill-opacity:0.1;fill-rule:nonzero;"/><path d="M132.633,201.296c19.956,0 36.133,-16.153 36.133,-36.078c0,-19.926 -16.177,-36.079 -36.133,-36.079c-19.955,0 -36.132,16.153 -36.132,36.079c0,19.925 16.177,36.078 36.132,36.078Z" style="fill:#fbbebe;fill-rule:nonzero;"/><path d="M242.72,282.308l-2.969,-17.961c-1.5,-9.012 -3.048,-18.196 -7.242,-26.314c-2.757,-5.317 -7.133,-10.384 -13.032,-11.435c-1.162,-0.103 -2.304,-0.367 -3.393,-0.784c-1.728,-0.832 -2.671,-2.698 -3.998,-4.079c-3.425,-3.545 -9.002,-3.6 -13.589,-5.404c-4.053,-1.568 -7.368,-4.588 -11.06,-6.894c-3.691,-2.306 -8.287,-3.922 -12.371,-2.447c-0.66,7.02 -1.359,14.196 -4.344,20.588c-1.943,4.162 -4.792,7.837 -8.341,10.757c-3.548,2.92 -7.705,5.012 -12.167,6.121c-4.461,1.11 -9.115,1.21 -13.621,0.293c-4.505,-0.918 -8.748,-2.829 -12.419,-5.594c-6.999,-5.263 -11.484,-13.381 -13.573,-21.875c-0.511,-2.07 -1.092,-4.447 -3.001,-5.396c-2.065,-1.035 -4.548,0.22 -6.284,1.741c-3.142,2.816 -5.71,6.847 -9.842,7.796c-1.492,0.346 -3.142,0.275 -4.383,1.177c-0.825,0.76 -1.515,1.654 -2.042,2.643c-0.904,1.276 -2.112,2.306 -3.515,2.999c-1.403,0.693 -2.957,1.026 -4.521,0.97c-1.437,-0.071 -3.142,-0.4 -4.123,0.643c-0.731,0.784 -0.786,2.008 -1.571,2.737c-1.061,1.028 -2.781,0.526 -4.258,0.471c-2.796,-0.118 -5.396,1.67 -6.998,3.921c-1.603,2.251 -2.357,5.036 -3.142,7.734c8.585,19.09 16.44,38.204 25.025,57.294c0.402,0.72 0.616,1.529 0.621,2.353c-0.172,0.855 -0.538,1.66 -1.068,2.353c-4.211,6.753 -4.077,15.247 -3.614,23.185c0.464,7.937 1.029,16.321 -2.521,23.435c-0.966,1.953 -2.223,3.741 -3.142,5.694c-2.152,4.424 -2.93,18.573 -1.673,23.326l177.583,0c-3.385,-9.294 -2.097,-27.945 -1.39,-37.812c0.495,-6.902 -0.786,-13.796 -1.336,-20.698c-1.201,-14.095 -0.353,-27.467 -2.686,-41.538Z" style="fill:#575a89;fill-rule:nonzero;"/><path d="M43.316,302.857c-0.315,2.269 -0.346,4.569 -0.095,6.847l2.255,32.369c0.212,3.051 0.424,6.094 0.707,9.137c0.542,5.906 1.351,11.765 2.356,17.616c0.023,0.831 0.375,1.618 0.978,2.19c0.604,0.572 1.411,0.882 2.243,0.861c9.936,2.102 20.202,2.016 30.343,1.443c15.474,-0.863 30.925,-2.831 46.423,-2.494c3.99,0.086 8.64,0 11.059,-3.137c2.42,-3.138 1.014,-8.212 -2.144,-10.746c-3.158,-2.533 -7.447,-3.137 -11.5,-3.137c-5.365,-0.055 -10.729,0.706 -16.079,0.392c-4.909,-0.29 -9.708,-1.474 -14.468,-2.659l-13.354,-3.317c0.511,-4.039 2.05,-7.843 3.511,-11.679c2.624,-6.8 5.075,-13.827 5.122,-21.114c0.047,-7.286 -2.702,-14.949 -8.68,-19.121c-4.917,-3.428 -11.248,-4.063 -17.241,-3.922c-4.36,0.126 -11.893,-0.918 -15.875,0.784c-3.15,1.381 -4.972,6.604 -5.561,9.687Z" style="fill:#fbbebe;fill-rule:nonzero;"/><path d="M251.808,376.866c2.616,-0.996 5.498,-0.635 8.303,-0.259c9.025,1.232 18.184,2.495 26.549,6.095c3.928,1.678 7.666,3.921 10.321,7.223c2.357,2.973 3.732,6.612 5.035,10.196l3.017,8.251c1.147,3.138 2.309,6.338 2.631,9.671c0.943,9.874 -5.82,19.184 -14.327,24.314c-8.507,5.129 -18.522,6.957 -28.278,8.87c-9.756,1.914 -19.551,4.032 -29.267,6.275c-4.532,1.174 -9.13,2.078 -13.77,2.706c-10.4,1.176 -21.271,-0.557 -31.152,2.878c-3.928,1.373 -7.784,3.412 -11.861,4.361c-2.708,0.569 -5.446,0.985 -8.201,1.247l-18.702,2.133c-3.803,0.508 -7.632,0.802 -11.468,0.879c-8.169,0 -16.205,-1.93 -24.138,-3.859c-0.844,-0.148 -1.647,-0.471 -2.357,-0.949c-1.257,-0.988 -1.531,-2.737 -1.712,-4.322c-0.801,-7.011 -1.503,-14.031 -2.105,-21.059c-0.189,-2.282 -0.33,-4.752 0.919,-6.674c1.571,-2.353 4.634,-3.09 7.431,-3.545c11.857,-1.937 23.869,-2.769 35.881,-2.486c4.563,-4.557 12.088,-4.581 18.066,-7.059c2.199,-1.009 4.327,-2.164 6.37,-3.459c10.693,-6.229 22.642,-9.999 34.978,-11.035c2.416,-0.074 4.816,-0.416 7.156,-1.02c4.626,-1.435 8.844,-5.341 13.597,-4.384c0.589,-1.624 0.997,-3.796 2.356,-4.91c0.676,-0.573 1.508,-0.957 2.129,-1.569c1.312,-1.325 1.429,-3.412 1.233,-5.263c-0.196,-1.851 -0.636,-3.749 -0.157,-5.553c0.199,-0.683 0.493,-1.335 0.872,-1.937c2.356,-4.063 5.914,-6.149 10.651,-5.757Z" style="fill:#2f2e41;fill-rule:nonzero;"/><path d="M251.808,376.866c2.616,-0.996 5.498,-0.635 8.303,-0.259c9.025,1.232 18.184,2.495 26.549,6.095c3.928,1.678 7.666,3.921 10.321,7.223c2.357,2.973 3.732,6.612 5.035,10.196l3.017,8.251c1.147,3.138 2.309,6.338 2.631,9.671c0.943,9.874 -5.82,19.184 -14.327,24.314c-8.507,5.129 -18.522,6.957 -28.278,8.87c-9.756,1.914 -19.551,4.032 -29.267,6.275c-4.532,1.174 -9.13,2.078 -13.77,2.706c-10.4,1.176 -21.271,-0.557 -31.152,2.878c-3.928,1.373 -7.784,3.412 -11.861,4.361c-2.708,0.569 -5.446,0.985 -8.201,1.247l-18.702,2.133c-3.803,0.508 -7.632,0.802 -11.468,0.879c-8.169,0 -16.205,-1.93 -24.138,-3.859c-0.844,-0.148 -1.647,-0.471 -2.357,-0.949c-1.257,-0.988 -1.531,-2.737 -1.712,-4.322c-0.801,-7.011 -1.503,-14.031 -2.105,-21.059c-0.189,-2.282 -0.33,-4.752 0.919,-6.674c1.571,-2.353 4.634,-3.09 7.431,-3.545c11.857,-1.937 23.869,-2.769 35.881,-2.486c4.563,-4.557 12.088,-4.581 18.066,-7.059c2.199,-1.009 4.327,-2.164 6.37,-3.459c10.693,-6.229 22.642,-9.999 34.978,-11.035c2.416,-0.074 4.816,-0.416 7.156,-1.02c4.626,-1.435 8.844,-5.341 13.597,-4.384c0.589,-1.624 0.997,-3.796 2.356,-4.91c0.676,-0.573 1.508,-0.957 2.129,-1.569c1.312,-1.325 1.429,-3.412 1.233,-5.263c-0.196,-1.851 -0.636,-3.749 -0.157,-5.553c0.199,-0.683 0.493,-1.335 0.872,-1.937c2.356,-4.063 5.914,-6.149 10.651,-5.757Z" style="fill-opacity:0.05;fill-rule:nonzero;"/><path d="M97.404,467.618c-4.862,5.624 -9.143,7.632 -16.754,7.451c-4.682,-0.11 -9.358,-0.353 -14.029,-0.729c-3.193,-0.345 -6.403,-0.494 -9.614,-0.447c-9.693,0.376 -19.048,4.807 -28.718,4.031c-1.43,-0.112 -2.843,-0.375 -4.218,-0.784c-2.193,-0.604 -4.176,-1.804 -5.726,-3.467c-1.854,-2.094 -2.741,-4.87 -3.252,-7.616c-2.584,-14.07 4.501,-29.395 16.904,-36.556c1.618,-1.044 3.458,-1.696 5.372,-1.906c1.878,-0.008 3.734,0.399 5.436,1.192l0.118,0.047c5.039,2.07 9.615,5.12 13.463,8.973c0.584,0.667 1.28,1.227 2.058,1.655c0.776,0.292 1.598,0.446 2.427,0.454l10.322,0.651c1.748,0.053 3.486,0.292 5.184,0.714c1.871,0.653 3.693,1.439 5.451,2.353c5.554,2.478 11.712,3.137 17.713,4.094c0.578,0.032 1.13,0.252 1.571,0.628c0.239,0.297 0.406,0.646 0.487,1.019c0.843,3.152 0.902,6.462 0.171,9.642c-0.731,3.179 -2.23,6.132 -4.366,8.601Z" style="fill:#3f3d56;fill-rule:nonzero;"/><path d="M42.923,428.843c-4.005,3.818 -7.479,8.155 -10.329,12.894c-4.575,7.822 -7.449,16.518 -8.436,25.522c-0.375,3.285 -0.404,6.599 -0.087,9.89c-2.193,-0.603 -4.176,-1.804 -5.726,-3.467c-1.854,-2.094 -2.741,-4.87 -3.252,-7.615c-2.584,-14.071 4.501,-29.396 16.904,-36.557c1.618,-1.044 3.458,-1.696 5.372,-1.906c1.878,-0.008 3.734,0.399 5.436,1.192l0.118,0.047Z" style="fill-opacity:0.1;fill-rule:nonzero;"/><path d="M242.822,448.356c5.773,-0.157 12.253,-0.447 16.495,3.436c4.045,3.67 4.579,9.725 4.846,15.176l0.307,6.33c0.094,1.929 0.173,3.921 -0.605,5.71c-1.383,3.137 -5.176,4.651 -8.64,4.47c-3.464,-0.18 -6.646,-1.694 -9.811,-3.059c-8.594,-3.697 -17.542,-6.511 -26.707,-8.4c0.299,-4.376 0.796,-8.732 1.493,-13.067c0.479,-3.003 0.557,-8.031 2.568,-10.525c2.129,-2.635 4.902,-1.208 7.792,-0.722c4.056,0.618 8.163,0.836 12.262,0.651Z" style="fill:#fbbebe;fill-rule:nonzero;"/><path d="M90.248,384.756c0,0.784 -1.233,0 -1.343,-0.84c-0.864,-6.345 -5.907,-11.576 -11.782,-14.117c-5.876,-2.542 -12.568,-2.675 -18.93,-2.071c-9.623,0.91 -20.423,4.588 -23.942,13.569c-0.833,2.102 -1.21,4.376 -2.231,6.392c-1.131,2.212 -2.977,3.976 -4.202,6.125c-2.113,3.718 -2.2,8.275 -1.438,12.479c2.05,11.216 9.733,20.808 19.041,27.451c9.308,6.643 20.187,10.612 31.034,14.189c28.684,9.445 58.112,16.464 87.975,20.98c4.839,0.73 9.724,1.404 14.359,2.957c4.147,1.388 8.027,3.467 12.081,5.098c9.425,3.781 19.566,5.13 29.612,6.455c1.713,0.22 3.677,0.376 4.941,-0.784c1.634,-1.514 1.092,-4.149 0.629,-6.322c-1.706,-8.261 -0.275,-16.859 4.013,-24.126c1.681,-2.823 3.865,-5.717 3.551,-8.988c-0.377,-3.812 -4.179,-6.51 -7.965,-7.122c-3.786,-0.611 -7.635,0.291 -11.437,0.785c-1.312,0.172 -2.741,0.282 -3.888,-0.385c-0.565,-0.38 -1.077,-0.834 -1.524,-1.349c-2.619,-2.522 -5.971,-4.152 -9.575,-4.655c-3.604,-0.503 -7.275,0.146 -10.486,1.855c-1.406,0.785 -3.535,-0.964 -4.996,-1.623l-16.519,-7.467c-18.977,-8.572 -38.049,-17.184 -58.126,-22.612c-1.602,-0.314 -3.124,-0.946 -4.477,-1.859c-0.998,-0.784 -1.712,-1.851 -2.631,-2.721c-2.004,-1.89 -4.792,-2.643 -7.196,-3.985c-2.403,-1.341 -5.097,-4.619 -4.548,-7.309Z" style="fill:#2f2e41;fill-rule:nonzero;"/><path d="M344.912,487.259c-2.64,4.887 -7.761,7.93 -13.259,9.185c-1.38,0.311 -2.783,0.51 -4.195,0.596c-6.952,0.431 -13.817,-1.49 -20.517,-3.388l-9.096,-2.557c-1.564,-0.492 -3.167,-0.849 -4.791,-1.067c-2.212,-0.147 -4.433,-0.071 -6.63,0.227c-10.75,0.999 -21.587,0.514 -32.205,-1.443c-0.888,-0.095 -1.741,-0.399 -2.49,-0.886c-0.656,-0.642 -1.238,-1.355 -1.736,-2.125c-2.474,-2.973 -5.137,-4.706 -2.207,-8.628c1.689,-2.274 4.823,-3.412 6.135,-6.023c1.311,-2.612 0.471,-6.322 -0.307,-9.02c-1.06,-3.726 -4.548,-5.334 -5.797,-8.753c-0.934,-2.581 0.637,-5.577 3.001,-6.981c2.364,-1.403 5.286,-1.513 8.012,-1.153c2.726,0.361 5.396,1.13 8.138,1.342c8.059,0.643 16.298,-3.506 24.036,-1.169c1.704,0.518 3.314,1.341 5.042,1.796c3.369,0.753 6.889,0.449 10.078,-0.87c1.131,-0.424 2.239,-0.934 3.338,-1.436c2.121,-1.102 4.38,-1.917 6.716,-2.423c7.549,-1.294 14.548,3.921 20.242,9.012c1.955,1.62 3.686,3.492 5.145,5.568c1.571,2.447 2.404,5.294 3.142,8.102c2.082,7.255 3.802,15.428 0.205,22.094Z" style="fill:#3f3d56;fill-rule:nonzero;"/><path d="M344.911,487.259c-2.639,4.886 -7.76,7.929 -13.259,9.184c2.139,-4.149 3.103,-8.803 2.789,-13.459c-0.472,-7.459 -3.755,-14.486 -7.942,-20.683c-2.575,-3.814 -5.505,-7.377 -8.75,-10.643c-2.498,-2.51 -5.569,-4.502 -8.255,-6.8c2.12,-1.102 4.379,-1.917 6.716,-2.423c7.548,-1.294 14.547,3.921 20.242,9.011c1.954,1.621 3.685,3.493 5.145,5.569c1.571,2.447 2.403,5.294 3.142,8.102c2.05,7.302 3.77,15.475 0.172,22.142Z" style="fill:#fff;fill-opacity:0.1;fill-rule:nonzero;"/><path d="M56.473,245.297c-0.765,0.8 -1.359,1.747 -1.744,2.784c-6.349,14.288 -10.1,29.591 -11.075,45.192c0.017,0.761 -0.159,1.514 -0.511,2.189c-0.347,0.449 -0.734,0.866 -1.155,1.247c-0.382,0.452 -0.667,0.978 -0.838,1.545c-0.171,0.568 -0.223,1.164 -0.154,1.752c0.069,0.588 0.259,1.155 0.556,1.668c0.298,0.512 0.698,0.957 1.175,1.309c1.296,-2.439 4.398,-3.231 7.155,-3.443c13.205,-1.043 26.102,5.09 39.346,4.627c-0.935,-3.223 -2.278,-6.321 -3.04,-9.584c-3.37,-14.486 5.035,-30.259 -0.118,-44.212c-1.029,-2.792 -2.749,-5.537 -5.459,-6.761c-1.122,-0.452 -2.296,-0.763 -3.496,-0.925c-3.346,-0.604 -10.007,-3.184 -13.243,-2.149c-1.194,0.384 -1.665,1.506 -2.655,2.18c-1.5,0.965 -3.495,1.318 -4.744,2.581Z" style="fill:#575a89;fill-rule:nonzero;"/><path d="M253.23,273.845l-162.643,0c-3.458,0 -6.261,2.798 -6.261,6.251l0,98.871c0,3.452 2.803,6.251 6.261,6.251l162.643,0c3.457,0 6.26,-2.799 6.26,-6.251l0,-98.871c0,-3.453 -2.803,-6.251 -6.26,-6.251Z" style="fill:#3f3d56;fill-rule:nonzero;"/><path d="M171.515,334.238c2.603,0 4.713,-2.107 4.713,-4.706c0,-2.599 -2.11,-4.706 -4.713,-4.706c-2.603,0 -4.713,2.107 -4.713,4.706c0,2.599 2.11,4.706 4.713,4.706Z" style="fill:#fff;fill-rule:nonzero;"/><path d="M120.742,149.284c5.164,-1.881 10.428,-3.494 15.768,-4.833c3.868,-0.971 7.937,-1.799 11.784,-0.998c5.8,1.207 9.875,5.832 12.89,10.519c3.015,4.687 5.537,9.843 10.044,13.345c4.812,-7.024 4.223,-15.844 3.46,-23.969c-0.538,-5.716 -1.224,-11.786 -5.08,-16.18c-2.375,-2.706 -5.735,-4.499 -9.093,-6.103c-16.034,-7.658 -35.331,-12.282 -52.637,-6.177l0.11,2.609c-3.055,0.553 -6.058,1.366 -8.971,2.428l1.944,6.123l-9.34,2.533l1,6.596l-9.499,2.31c0.708,2.467 2.389,4.572 4.718,5.91c-1.267,1.284 -2.793,2.326 -4.486,3.066c2.779,5.329 5.514,10.681 8.343,15.986c2.084,3.908 2.636,7.631 7.078,4.579c3.382,-2.324 4.86,-7.768 8.181,-10.586c3.913,-3.32 8.932,-5.39 13.786,-7.158Z" style="fill:#2f2e41;fill-rule:nonzero;"/></svg>