<?xml version="1.0" encoding="UTF-8" standalone="no"?><!DOCTYPE svg PUBLIC "-//W3C//DTD SVG 1.1//EN" "http://www.w3.org/Graphics/SVG/1.1/DTD/svg11.dtd"><svg width="270px" height="288px" version="1.1" xmlns="http://www.w3.org/2000/svg" xmlns:xlink="http://www.w3.org/1999/xlink" xml:space="preserve" xmlns:serif="http://www.serif.com/" style="fill-rule:evenodd;clip-rule:evenodd;stroke-linejoin:round;stroke-miterlimit:2;"><path d="M3.115,17.272l-3.115,-3.115l14.157,-14.157l3.115,3.115l-14.157,14.157Z" style="fill:#e5e5e5;"/><path d="M16.738,13.277l-3.461,3.461l-12.743,-12.743l3.461,-3.461l12.743,12.743Z" style="fill:#e5e5e5;"/><path d="M3.115,47.293l-3.115,-3.115l14.157,-14.157l3.115,3.115l-14.157,14.157Z" style="fill:#e5e5e5;"/><path d="M16.738,43.298l-3.461,3.46l-12.743,-12.743l3.461,-3.46l12.743,12.743Z" style="fill:#e5e5e5;"/><path d="M3.115,77.314l-3.115,-3.115l14.157,-14.157l3.115,3.115l-14.157,14.157Z" style="fill:#e5e5e5;"/><path d="M16.738,73.319l-3.461,3.461l-12.743,-12.743l3.461,-3.461l12.743,12.743Z" style="fill:#e5e5e5;"/><path d="M3.115,107.335l-3.115,-3.115l14.157,-14.157l3.115,3.115l-14.157,14.157Z" style="fill:#e5e5e5;"/><path d="M16.738,103.341l-3.461,3.46l-12.743,-12.743l3.461,-3.46l12.743,12.743Z" style="fill:#e5e5e5;"/><path d="M3.115,137.356l-3.115,-3.115l14.157,-14.157l3.115,3.115l-14.157,14.157Z" style="fill:#e5e5e5;"/><path d="M16.738,133.362l-3.461,3.46l-12.743,-12.743l3.461,-3.46l12.743,12.743Z" style="fill:#e5e5e5;"/><path d="M3.115,167.377l-3.115,-3.115l14.157,-14.157l3.115,3.115l-14.157,14.157Z" style="fill:#e5e5e5;"/><path d="M16.738,163.383l-3.461,3.46l-12.743,-12.743l3.461,-3.46l12.743,12.743Z" style="fill:#e5e5e5;"/><path d="M3.115,197.398l-3.115,-3.115l14.157,-14.157l3.115,3.115l-14.157,14.157Z" style="fill:#e5e5e5;"/><path d="M16.738,193.404l-3.461,3.46l-12.743,-12.743l3.461,-3.46l12.743,12.743Z" style="fill:#e5e5e5;"/><path d="M3.115,227.419l-3.115,-3.115l14.157,-14.157l3.115,3.115l-14.157,14.157Z" style="fill:#e5e5e5;"/><path d="M16.738,223.425l-3.461,3.46l-12.743,-12.743l3.461,-3.46l12.743,12.743Z" style="fill:#e5e5e5;"/><path d="M3.115,257.441l-3.115,-3.115l14.157,-14.157l3.115,3.115l-14.157,14.157Z" style="fill:#e5e5e5;"/><path d="M16.738,253.447l-3.461,3.46l-12.743,-12.743l3.461,-3.46l12.743,12.743Z" style="fill:#e5e5e5;"/><path d="M3.115,287.461l-3.115,-3.115l14.157,-14.157l3.115,3.115l-14.157,14.157Z" style="fill:#e5e5e5;"/><path d="M16.738,283.467l-3.461,3.46l-12.743,-12.743l3.461,-3.46l12.743,12.743Z" style="fill:#e5e5e5;"/><path d="M31.136,17.272l-3.115,-3.115l14.157,-14.157l3.115,3.115l-14.157,14.157Z" style="fill:#e5e5e5;"/><path d="M44.759,13.277l-3.461,3.461l-12.743,-12.743l3.461,-3.461l12.743,12.743Z" style="fill:#e5e5e5;"/><path d="M31.136,47.293l-3.115,-3.115l14.157,-14.157l3.115,3.115l-14.157,14.157Z" style="fill:#e5e5e5;"/><path d="M44.759,43.298l-3.461,3.46l-12.743,-12.743l3.461,-3.46l12.743,12.743Z" style="fill:#e5e5e5;"/><path d="M31.136,77.314l-3.115,-3.115l14.157,-14.157l3.115,3.115l-14.157,14.157Z" style="fill:#e5e5e5;"/><path d="M44.759,73.319l-3.461,3.461l-12.743,-12.743l3.461,-3.461l12.743,12.743Z" style="fill:#e5e5e5;"/><path d="M31.136,107.335l-3.115,-3.115l14.157,-14.157l3.115,3.115l-14.157,14.157Z" style="fill:#e5e5e5;"/><path d="M44.759,103.341l-3.461,3.46l-12.743,-12.743l3.461,-3.46l12.743,12.743Z" style="fill:#e5e5e5;"/><path d="M31.136,137.356l-3.115,-3.115l14.157,-14.157l3.115,3.115l-14.157,14.157Z" style="fill:#e5e5e5;"/><path d="M44.759,133.362l-3.461,3.46l-12.743,-12.743l3.461,-3.46l12.743,12.743Z" style="fill:#e5e5e5;"/><path d="M31.136,167.377l-3.115,-3.115l14.157,-14.157l3.115,3.115l-14.157,14.157Z" style="fill:#e5e5e5;"/><path d="M44.759,163.383l-3.461,3.46l-12.743,-12.743l3.461,-3.46l12.743,12.743Z" style="fill:#e5e5e5;"/><path d="M31.136,197.398l-3.115,-3.115l14.157,-14.157l3.115,3.115l-14.157,14.157Z" style="fill:#e5e5e5;"/><path d="M44.759,193.404l-3.461,3.46l-12.743,-12.743l3.461,-3.46l12.743,12.743Z" style="fill:#e5e5e5;"/><path d="M31.136,227.419l-3.115,-3.115l14.157,-14.157l3.115,3.115l-14.157,14.157Z" style="fill:#e5e5e5;"/><path d="M44.759,223.425l-3.461,3.46l-12.743,-12.743l3.461,-3.46l12.743,12.743Z" style="fill:#e5e5e5;"/><path d="M31.136,257.441l-3.115,-3.115l14.157,-14.157l3.115,3.115l-14.157,14.157Z" style="fill:#e5e5e5;"/><path d="M44.759,253.447l-3.461,3.46l-12.743,-12.743l3.461,-3.46l12.743,12.743Z" style="fill:#e5e5e5;"/><path d="M31.136,287.461l-3.115,-3.115l14.157,-14.157l3.115,3.115l-14.157,14.157Z" style="fill:#e5e5e5;"/><path d="M44.759,283.467l-3.461,3.46l-12.743,-12.743l3.461,-3.46l12.743,12.743Z" style="fill:#e5e5e5;"/><path d="M59.157,17.272l-3.115,-3.115l14.157,-14.157l3.115,3.115l-14.157,14.157Z" style="fill:#e5e5e5;"/><path d="M72.78,13.277l-3.461,3.461l-12.743,-12.743l3.461,-3.461l12.743,12.743Z" style="fill:#e5e5e5;"/><path d="M59.157,47.293l-3.115,-3.115l14.157,-14.157l3.115,3.115l-14.157,14.157Z" style="fill:#e5e5e5;"/><path d="M72.78,43.298l-3.461,3.46l-12.743,-12.743l3.461,-3.46l12.743,12.743Z" style="fill:#e5e5e5;"/><path d="M59.157,77.314l-3.115,-3.115l14.157,-14.157l3.115,3.115l-14.157,14.157Z" style="fill:#e5e5e5;"/><path d="M72.78,73.319l-3.461,3.461l-12.743,-12.743l3.461,-3.461l12.743,12.743Z" style="fill:#e5e5e5;"/><path d="M59.157,107.335l-3.115,-3.115l14.157,-14.157l3.115,3.115l-14.157,14.157Z" style="fill:#e5e5e5;"/><path d="M72.78,103.341l-3.461,3.46l-12.743,-12.743l3.461,-3.46l12.743,12.743Z" style="fill:#e5e5e5;"/><path d="M59.157,137.356l-3.115,-3.115l14.157,-14.157l3.115,3.115l-14.157,14.157Z" style="fill:#e5e5e5;"/><path d="M72.78,133.362l-3.461,3.46l-12.743,-12.743l3.461,-3.46l12.743,12.743Z" style="fill:#e5e5e5;"/><path d="M59.157,167.377l-3.115,-3.115l14.157,-14.157l3.115,3.115l-14.157,14.157Z" style="fill:#e5e5e5;"/><path d="M72.78,163.383l-3.461,3.46l-12.743,-12.743l3.461,-3.46l12.743,12.743Z" style="fill:#e5e5e5;"/><path d="M59.157,197.398l-3.115,-3.115l14.157,-14.157l3.115,3.115l-14.157,14.157Z" style="fill:#e5e5e5;"/><path d="M72.78,193.404l-3.461,3.46l-12.743,-12.743l3.461,-3.46l12.743,12.743Z" style="fill:#e5e5e5;"/><path d="M59.157,227.419l-3.115,-3.115l14.157,-14.157l3.115,3.115l-14.157,14.157Z" style="fill:#e5e5e5;"/><path d="M72.78,223.425l-3.461,3.46l-12.743,-12.743l3.461,-3.46l12.743,12.743Z" style="fill:#e5e5e5;"/><path d="M59.157,257.441l-3.115,-3.115l14.157,-14.157l3.115,3.115l-14.157,14.157Z" style="fill:#e5e5e5;"/><path d="M72.78,253.447l-3.461,3.46l-12.743,-12.743l3.461,-3.46l12.743,12.743Z" style="fill:#e5e5e5;"/><path d="M59.157,287.461l-3.115,-3.115l14.157,-14.157l3.115,3.115l-14.157,14.157Z" style="fill:#e5e5e5;"/><path d="M72.78,283.467l-3.461,3.46l-12.743,-12.743l3.461,-3.46l12.743,12.743Z" style="fill:#e5e5e5;"/><path d="M87.178,17.272l-3.115,-3.115l14.157,-14.157l3.115,3.115l-14.157,14.157Z" style="fill:#e5e5e5;"/><path d="M100.801,13.277l-3.461,3.461l-12.743,-12.743l3.461,-3.461l12.743,12.743Z" style="fill:#e5e5e5;"/><path d="M87.178,47.293l-3.115,-3.115l14.157,-14.157l3.115,3.115l-14.157,14.157Z" style="fill:#e5e5e5;"/><path d="M100.801,43.298l-3.461,3.46l-12.743,-12.743l3.461,-3.46l12.743,12.743Z" style="fill:#e5e5e5;"/><path d="M87.178,77.314l-3.115,-3.115l14.157,-14.157l3.115,3.115l-14.157,14.157Z" style="fill:#e5e5e5;"/><path d="M100.801,73.319l-3.461,3.461l-12.743,-12.743l3.461,-3.461l12.743,12.743Z" style="fill:#e5e5e5;"/><path d="M87.178,107.335l-3.115,-3.115l14.157,-14.157l3.115,3.115l-14.157,14.157Z" style="fill:#e5e5e5;"/><path d="M100.801,103.341l-3.461,3.46l-12.743,-12.743l3.461,-3.46l12.743,12.743Z" style="fill:#e5e5e5;"/><path d="M87.178,137.356l-3.115,-3.115l14.157,-14.157l3.115,3.115l-14.157,14.157Z" style="fill:#e5e5e5;"/><path d="M100.801,133.362l-3.461,3.46l-12.743,-12.743l3.461,-3.46l12.743,12.743Z" style="fill:#e5e5e5;"/><path d="M87.178,167.377l-3.115,-3.115l14.157,-14.157l3.115,3.115l-14.157,14.157Z" style="fill:#e5e5e5;"/><path d="M100.801,163.383l-3.461,3.46l-12.743,-12.743l3.461,-3.46l12.743,12.743Z" style="fill:#e5e5e5;"/><path d="M87.178,197.398l-3.115,-3.115l14.157,-14.157l3.115,3.115l-14.157,14.157Z" style="fill:#e5e5e5;"/><path d="M100.801,193.404l-3.461,3.46l-12.743,-12.743l3.461,-3.46l12.743,12.743Z" style="fill:#e5e5e5;"/><path d="M87.178,227.419l-3.115,-3.115l14.157,-14.157l3.115,3.115l-14.157,14.157Z" style="fill:#e5e5e5;"/><path d="M100.801,223.425l-3.461,3.46l-12.743,-12.743l3.461,-3.46l12.743,12.743Z" style="fill:#e5e5e5;"/><path d="M87.178,257.441l-3.115,-3.115l14.157,-14.157l3.115,3.115l-14.157,14.157Z" style="fill:#e5e5e5;"/><path d="M100.801,253.447l-3.461,3.46l-12.743,-12.743l3.461,-3.46l12.743,12.743Z" style="fill:#e5e5e5;"/><path d="M87.178,287.461l-3.115,-3.115l14.157,-14.157l3.115,3.115l-14.157,14.157Z" style="fill:#e5e5e5;"/><path d="M100.801,283.467l-3.461,3.46l-12.743,-12.743l3.461,-3.46l12.743,12.743Z" style="fill:#e5e5e5;"/><path d="M115.199,17.272l-3.115,-3.115l14.157,-14.157l3.115,3.115l-14.157,14.157Z" style="fill:#e5e5e5;"/><path d="M128.822,13.277l-3.461,3.461l-12.743,-12.743l3.461,-3.461l12.743,12.743Z" style="fill:#e5e5e5;"/><path d="M115.199,47.293l-3.115,-3.115l14.157,-14.157l3.115,3.115l-14.157,14.157Z" style="fill:#e5e5e5;"/><path d="M128.822,43.298l-3.461,3.46l-12.743,-12.743l3.461,-3.46l12.743,12.743Z" style="fill:#e5e5e5;"/><path d="M115.199,77.314l-3.115,-3.115l14.157,-14.157l3.115,3.115l-14.157,14.157Z" style="fill:#e5e5e5;"/><path d="M128.822,73.319l-3.461,3.461l-12.743,-12.743l3.461,-3.461l12.743,12.743Z" style="fill:#e5e5e5;"/><path d="M115.199,107.335l-3.115,-3.115l14.157,-14.157l3.115,3.115l-14.157,14.157Z" style="fill:#e5e5e5;"/><path d="M128.822,103.341l-3.461,3.46l-12.743,-12.743l3.461,-3.46l12.743,12.743Z" style="fill:#e5e5e5;"/><path d="M115.199,137.356l-3.115,-3.115l14.157,-14.157l3.115,3.115l-14.157,14.157Z" style="fill:#e5e5e5;"/><path d="M128.822,133.362l-3.461,3.46l-12.743,-12.743l3.461,-3.46l12.743,12.743Z" style="fill:#e5e5e5;"/><path d="M115.199,167.377l-3.115,-3.115l14.157,-14.157l3.115,3.115l-14.157,14.157Z" style="fill:#e5e5e5;"/><path d="M128.822,163.383l-3.461,3.46l-12.743,-12.743l3.461,-3.46l12.743,12.743Z" style="fill:#e5e5e5;"/><path d="M115.199,197.398l-3.115,-3.115l14.157,-14.157l3.115,3.115l-14.157,14.157Z" style="fill:#e5e5e5;"/><path d="M128.822,193.404l-3.461,3.46l-12.743,-12.743l3.461,-3.46l12.743,12.743Z" style="fill:#e5e5e5;"/><path d="M115.199,227.419l-3.115,-3.115l14.157,-14.157l3.115,3.115l-14.157,14.157Z" style="fill:#e5e5e5;"/><path d="M128.822,223.425l-3.461,3.46l-12.743,-12.743l3.461,-3.46l12.743,12.743Z" style="fill:#e5e5e5;"/><path d="M115.199,257.441l-3.115,-3.115l14.157,-14.157l3.115,3.115l-14.157,14.157Z" style="fill:#e5e5e5;"/><path d="M128.822,253.447l-3.461,3.46l-12.743,-12.743l3.461,-3.46l12.743,12.743Z" style="fill:#e5e5e5;"/><path d="M115.199,287.461l-3.115,-3.115l14.157,-14.157l3.115,3.115l-14.157,14.157Z" style="fill:#e5e5e5;"/><path d="M128.822,283.467l-3.461,3.46l-12.743,-12.743l3.461,-3.46l12.743,12.743Z" style="fill:#e5e5e5;"/><path d="M143.22,17.272l-3.115,-3.115l14.157,-14.157l3.115,3.115l-14.157,14.157Z" style="fill:#e5e5e5;"/><path d="M156.843,13.277l-3.461,3.461l-12.743,-12.743l3.461,-3.461l12.743,12.743Z" style="fill:#e5e5e5;"/><path d="M143.22,47.293l-3.115,-3.115l14.157,-14.157l3.115,3.115l-14.157,14.157Z" style="fill:#e5e5e5;"/><path d="M156.843,43.298l-3.461,3.46l-12.743,-12.743l3.461,-3.46l12.743,12.743Z" style="fill:#e5e5e5;"/><path d="M143.22,77.314l-3.115,-3.115l14.157,-14.157l3.115,3.115l-14.157,14.157Z" style="fill:#e5e5e5;"/><path d="M156.843,73.319l-3.461,3.461l-12.743,-12.743l3.461,-3.461l12.743,12.743Z" style="fill:#e5e5e5;"/><path d="M143.22,107.335l-3.115,-3.115l14.157,-14.157l3.115,3.115l-14.157,14.157Z" style="fill:#e5e5e5;"/><path d="M156.843,103.341l-3.461,3.46l-12.743,-12.743l3.461,-3.46l12.743,12.743Z" style="fill:#e5e5e5;"/><path d="M143.22,137.356l-3.115,-3.115l14.157,-14.157l3.115,3.115l-14.157,14.157Z" style="fill:#e5e5e5;"/><path d="M156.843,133.362l-3.461,3.46l-12.743,-12.743l3.461,-3.46l12.743,12.743Z" style="fill:#e5e5e5;"/><path d="M143.22,167.377l-3.115,-3.115l14.157,-14.157l3.115,3.115l-14.157,14.157Z" style="fill:#e5e5e5;"/><path d="M156.843,163.383l-3.461,3.46l-12.743,-12.743l3.461,-3.46l12.743,12.743Z" style="fill:#e5e5e5;"/><path d="M143.22,197.398l-3.115,-3.115l14.157,-14.157l3.115,3.115l-14.157,14.157Z" style="fill:#e5e5e5;"/><path d="M156.843,193.404l-3.461,3.46l-12.743,-12.743l3.461,-3.46l12.743,12.743Z" style="fill:#e5e5e5;"/><path d="M143.22,227.419l-3.115,-3.115l14.157,-14.157l3.115,3.115l-14.157,14.157Z" style="fill:#e5e5e5;"/><path d="M156.843,223.425l-3.461,3.46l-12.743,-12.743l3.461,-3.46l12.743,12.743Z" style="fill:#e5e5e5;"/><path d="M143.22,257.441l-3.115,-3.115l14.157,-14.157l3.115,3.115l-14.157,14.157Z" style="fill:#e5e5e5;"/><path d="M156.843,253.447l-3.461,3.46l-12.743,-12.743l3.461,-3.46l12.743,12.743Z" style="fill:#e5e5e5;"/><path d="M143.22,287.461l-3.115,-3.115l14.157,-14.157l3.115,3.115l-14.157,14.157Z" style="fill:#e5e5e5;"/><path d="M156.843,283.467l-3.461,3.46l-12.743,-12.743l3.461,-3.46l12.743,12.743Z" style="fill:#e5e5e5;"/><path d="M171.241,17.272l-3.115,-3.115l14.157,-14.157l3.115,3.115l-14.157,14.157Z" style="fill:#e5e5e5;"/><path d="M184.864,13.277l-3.461,3.461l-12.743,-12.743l3.461,-3.461l12.743,12.743Z" style="fill:#e5e5e5;"/><path d="M171.241,47.293l-3.115,-3.115l14.157,-14.157l3.115,3.115l-14.157,14.157Z" style="fill:#e5e5e5;"/><path d="M184.864,43.298l-3.461,3.46l-12.743,-12.743l3.461,-3.46l12.743,12.743Z" style="fill:#e5e5e5;"/><path d="M171.241,77.314l-3.115,-3.115l14.157,-14.157l3.115,3.115l-14.157,14.157Z" style="fill:#e5e5e5;"/><path d="M184.864,73.319l-3.461,3.461l-12.743,-12.743l3.461,-3.461l12.743,12.743Z" style="fill:#e5e5e5;"/><path d="M171.241,107.335l-3.115,-3.115l14.157,-14.157l3.115,3.115l-14.157,14.157Z" style="fill:#e5e5e5;"/><path d="M184.864,103.341l-3.461,3.46l-12.743,-12.743l3.461,-3.46l12.743,12.743Z" style="fill:#e5e5e5;"/><path d="M171.241,137.356l-3.115,-3.115l14.157,-14.157l3.115,3.115l-14.157,14.157Z" style="fill:#e5e5e5;"/><path d="M184.864,133.362l-3.461,3.46l-12.743,-12.743l3.461,-3.46l12.743,12.743Z" style="fill:#e5e5e5;"/><path d="M171.241,167.377l-3.115,-3.115l14.157,-14.157l3.115,3.115l-14.157,14.157Z" style="fill:#e5e5e5;"/><path d="M184.864,163.383l-3.461,3.46l-12.743,-12.743l3.461,-3.46l12.743,12.743Z" style="fill:#e5e5e5;"/><path d="M171.241,197.398l-3.115,-3.115l14.157,-14.157l3.115,3.115l-14.157,14.157Z" style="fill:#e5e5e5;"/><path d="M184.864,193.404l-3.461,3.46l-12.743,-12.743l3.461,-3.46l12.743,12.743Z" style="fill:#e5e5e5;"/><path d="M171.241,227.419l-3.115,-3.115l14.157,-14.157l3.115,3.115l-14.157,14.157Z" style="fill:#e5e5e5;"/><path d="M184.864,223.425l-3.461,3.46l-12.743,-12.743l3.461,-3.46l12.743,12.743Z" style="fill:#e5e5e5;"/><path d="M171.241,257.441l-3.115,-3.115l14.157,-14.157l3.115,3.115l-14.157,14.157Z" style="fill:#e5e5e5;"/><path d="M184.864,253.447l-3.461,3.46l-12.743,-12.743l3.461,-3.46l12.743,12.743Z" style="fill:#e5e5e5;"/><path d="M171.241,287.461l-3.115,-3.115l14.157,-14.157l3.115,3.115l-14.157,14.157Z" style="fill:#e5e5e5;"/><path d="M184.864,283.467l-3.461,3.46l-12.743,-12.743l3.461,-3.46l12.743,12.743Z" style="fill:#e5e5e5;"/><path d="M199.262,17.272l-3.115,-3.115l14.157,-14.157l3.115,3.115l-14.157,14.157Z" style="fill:#e5e5e5;"/><path d="M212.885,13.277l-3.461,3.461l-12.743,-12.743l3.461,-3.461l12.743,12.743Z" style="fill:#e5e5e5;"/><path d="M199.262,47.293l-3.115,-3.115l14.157,-14.157l3.115,3.115l-14.157,14.157Z" style="fill:#e5e5e5;"/><path d="M212.885,43.298l-3.461,3.46l-12.743,-12.743l3.461,-3.46l12.743,12.743Z" style="fill:#e5e5e5;"/><path d="M199.262,77.314l-3.115,-3.115l14.157,-14.157l3.115,3.115l-14.157,14.157Z" style="fill:#e5e5e5;"/><path d="M212.885,73.319l-3.461,3.461l-12.743,-12.743l3.461,-3.461l12.743,12.743Z" style="fill:#e5e5e5;"/><path d="M199.262,107.335l-3.115,-3.115l14.157,-14.157l3.115,3.115l-14.157,14.157Z" style="fill:#e5e5e5;"/><path d="M212.885,103.341l-3.461,3.46l-12.743,-12.743l3.461,-3.46l12.743,12.743Z" style="fill:#e5e5e5;"/><path d="M199.262,137.356l-3.115,-3.115l14.157,-14.157l3.115,3.115l-14.157,14.157Z" style="fill:#e5e5e5;"/><path d="M212.885,133.362l-3.461,3.46l-12.743,-12.743l3.461,-3.46l12.743,12.743Z" style="fill:#e5e5e5;"/><path d="M199.262,167.377l-3.115,-3.115l14.157,-14.157l3.115,3.115l-14.157,14.157Z" style="fill:#e5e5e5;"/><path d="M212.885,163.383l-3.461,3.46l-12.743,-12.743l3.461,-3.46l12.743,12.743Z" style="fill:#e5e5e5;"/><path d="M199.262,197.398l-3.115,-3.115l14.157,-14.157l3.115,3.115l-14.157,14.157Z" style="fill:#e5e5e5;"/><path d="M212.885,193.404l-3.461,3.46l-12.743,-12.743l3.461,-3.46l12.743,12.743Z" style="fill:#e5e5e5;"/><path d="M199.262,227.419l-3.115,-3.115l14.157,-14.157l3.115,3.115l-14.157,14.157Z" style="fill:#e5e5e5;"/><path d="M212.885,223.425l-3.461,3.46l-12.743,-12.743l3.461,-3.46l12.743,12.743Z" style="fill:#e5e5e5;"/><path d="M199.262,257.441l-3.115,-3.115l14.157,-14.157l3.115,3.115l-14.157,14.157Z" style="fill:#e5e5e5;"/><path d="M212.885,253.447l-3.461,3.46l-12.743,-12.743l3.461,-3.46l12.743,12.743Z" style="fill:#e5e5e5;"/><path d="M199.262,287.461l-3.115,-3.115l14.157,-14.157l3.115,3.115l-14.157,14.157Z" style="fill:#e5e5e5;"/><path d="M212.885,283.467l-3.461,3.46l-12.743,-12.743l3.461,-3.46l12.743,12.743Z" style="fill:#e5e5e5;"/><path d="M227.283,17.272l-3.115,-3.115l14.157,-14.157l3.115,3.115l-14.157,14.157Z" style="fill:#e5e5e5;"/><path d="M240.906,13.277l-3.461,3.461l-12.743,-12.743l3.461,-3.461l12.743,12.743Z" style="fill:#e5e5e5;"/><path d="M227.283,47.293l-3.115,-3.115l14.157,-14.157l3.115,3.115l-14.157,14.157Z" style="fill:#e5e5e5;"/><path d="M240.906,43.298l-3.461,3.46l-12.743,-12.743l3.461,-3.46l12.743,12.743Z" style="fill:#e5e5e5;"/><path d="M227.283,77.314l-3.115,-3.115l14.157,-14.157l3.115,3.115l-14.157,14.157Z" style="fill:#e5e5e5;"/><path d="M240.906,73.319l-3.461,3.461l-12.743,-12.743l3.461,-3.461l12.743,12.743Z" style="fill:#e5e5e5;"/><path d="M227.283,107.335l-3.115,-3.115l14.157,-14.157l3.115,3.115l-14.157,14.157Z" style="fill:#e5e5e5;"/><path d="M240.906,103.341l-3.461,3.46l-12.743,-12.743l3.461,-3.46l12.743,12.743Z" style="fill:#e5e5e5;"/><path d="M227.283,137.356l-3.115,-3.115l14.157,-14.157l3.115,3.115l-14.157,14.157Z" style="fill:#e5e5e5;"/><path d="M240.906,133.362l-3.461,3.46l-12.743,-12.743l3.461,-3.46l12.743,12.743Z" style="fill:#e5e5e5;"/><path d="M227.283,167.377l-3.115,-3.115l14.157,-14.157l3.115,3.115l-14.157,14.157Z" style="fill:#e5e5e5;"/><path d="M240.906,163.383l-3.461,3.46l-12.743,-12.743l3.461,-3.46l12.743,12.743Z" style="fill:#e5e5e5;"/><path d="M227.283,197.398l-3.115,-3.115l14.157,-14.157l3.115,3.115l-14.157,14.157Z" style="fill:#e5e5e5;"/><path d="M240.906,193.404l-3.461,3.46l-12.743,-12.743l3.461,-3.46l12.743,12.743Z" style="fill:#e5e5e5;"/><path d="M227.283,227.419l-3.115,-3.115l14.157,-14.157l3.115,3.115l-14.157,14.157Z" style="fill:#e5e5e5;"/><path d="M240.906,223.425l-3.461,3.46l-12.743,-12.743l3.461,-3.46l12.743,12.743Z" style="fill:#e5e5e5;"/><path d="M227.283,257.441l-3.115,-3.115l14.157,-14.157l3.115,3.115l-14.157,14.157Z" style="fill:#e5e5e5;"/><path d="M240.906,253.447l-3.461,3.46l-12.743,-12.743l3.461,-3.46l12.743,12.743Z" style="fill:#e5e5e5;"/><path d="M227.283,287.461l-3.115,-3.115l14.157,-14.157l3.115,3.115l-14.157,14.157Z" style="fill:#e5e5e5;"/><path d="M240.906,283.467l-3.461,3.46l-12.743,-12.743l3.461,-3.46l12.743,12.743Z" style="fill:#e5e5e5;"/><path d="M255.305,17.272l-3.115,-3.115l14.157,-14.157l3.115,3.115l-14.157,14.157Z" style="fill:#e5e5e5;"/><path d="M268.928,13.277l-3.461,3.461l-12.743,-12.743l3.461,-3.461l12.743,12.743Z" style="fill:#e5e5e5;"/><path d="M255.305,47.293l-3.115,-3.115l14.157,-14.157l3.115,3.115l-14.157,14.157Z" style="fill:#e5e5e5;"/><path d="M268.928,43.298l-3.461,3.46l-12.743,-12.743l3.461,-3.46l12.743,12.743Z" style="fill:#e5e5e5;"/><path d="M255.305,77.314l-3.115,-3.115l14.157,-14.157l3.115,3.115l-14.157,14.157Z" style="fill:#e5e5e5;"/><path d="M268.928,73.319l-3.461,3.461l-12.743,-12.743l3.461,-3.461l12.743,12.743Z" style="fill:#e5e5e5;"/><path d="M255.305,107.335l-3.115,-3.115l14.157,-14.157l3.115,3.115l-14.157,14.157Z" style="fill:#e5e5e5;"/><path d="M268.928,103.341l-3.461,3.46l-12.743,-12.743l3.461,-3.46l12.743,12.743Z" style="fill:#e5e5e5;"/><path d="M255.305,137.356l-3.115,-3.115l14.157,-14.157l3.115,3.115l-14.157,14.157Z" style="fill:#e5e5e5;"/><path d="M268.928,133.362l-3.461,3.46l-12.743,-12.743l3.461,-3.46l12.743,12.743Z" style="fill:#e5e5e5;"/><path d="M255.305,167.377l-3.115,-3.115l14.157,-14.157l3.115,3.115l-14.157,14.157Z" style="fill:#e5e5e5;"/><path d="M268.928,163.383l-3.461,3.46l-12.743,-12.743l3.461,-3.46l12.743,12.743Z" style="fill:#e5e5e5;"/><path d="M255.305,197.398l-3.115,-3.115l14.157,-14.157l3.115,3.115l-14.157,14.157Z" style="fill:#e5e5e5;"/><path d="M268.928,193.404l-3.461,3.46l-12.743,-12.743l3.461,-3.46l12.743,12.743Z" style="fill:#e5e5e5;"/><path d="M255.305,227.419l-3.115,-3.115l14.157,-14.157l3.115,3.115l-14.157,14.157Z" style="fill:#e5e5e5;"/><path d="M268.928,223.425l-3.461,3.46l-12.743,-12.743l3.461,-3.46l12.743,12.743Z" style="fill:#e5e5e5;"/><path d="M255.305,257.441l-3.115,-3.115l14.157,-14.157l3.115,3.115l-14.157,14.157Z" style="fill:#e5e5e5;"/><path d="M268.928,253.447l-3.461,3.46l-12.743,-12.743l3.461,-3.46l12.743,12.743Z" style="fill:#e5e5e5;"/><path d="M255.305,287.461l-3.115,-3.115l14.157,-14.157l3.115,3.115l-14.157,14.157Z" style="fill:#e5e5e5;"/><path d="M268.928,283.467l-3.461,3.46l-12.743,-12.743l3.461,-3.46l12.743,12.743Z" style="fill:#e5e5e5;"/></svg>